<?xml version="1.0" encoding="utf-8"?>
<!-- Generator: Adobe Illustrator 23.0.0, SVG Export Plug-In . SVG Version: 6.00 Build 0)  -->
<svg version="1.1" id="Слой_1" xmlns="http://www.w3.org/2000/svg" xmlns:xlink="http://www.w3.org/1999/xlink" x="0px" y="0px"
	 viewBox="0 0 512 512" style="enable-background:new 0 0 512 512;" xml:space="preserve">
<style type="text/css">
	.st0{fill:#A0A0A0;}
	.st1{fill:#E2E2E2;}
</style>
<path class="st0" d="M467,22h-45.2l-28.7,30H467c8.3,0,15,6.7,15,15v22.9c0,30.2-10.4,59.9-29.3,83.5
	c-16.1,20.2-37.6,35.1-62.1,43.3l-21.2,7c-7.9,2.6-12.1,11.1-9.5,19c2.1,6.3,8,10.3,14.2,10.3c1.6,0,3.2-0.3,4.7-0.8l21.2-7.1
	c30-10,56.3-28.3,76-53c23.1-28.9,35.9-65.2,35.9-102.2V67C512,42.2,491.8,22,467,22z"/>
<path class="st0" d="M142.5,223.7l-21.2-7c-24.5-8.2-46-23.1-62.1-43.3C40.4,149.7,30,120.1,30,89.9V67c0-8.3,6.7-15,15-15h80.5
	L91.2,22H45C20.2,22,0,42.2,0,67v22.9c0,37,12.7,73.3,35.9,102.2c19.8,24.7,46.1,43,76,53l21.2,7c1.6,0.5,3.2,0.8,4.7,0.8
	c6.3,0,12.1-4,14.2-10.3C154.6,234.8,150.4,226.3,142.5,223.7z"/>
<path class="st1" d="M302,292.8V315c0,8.4,6.6,77,15,77c24.9,0,45,20.1,45,45v30c0,8.4-6.6,15-15,15H165c-8.4,0-15-6.6-15-15v-30
	c0-24.9,20.1-45,45-45c8.4,0,15-68.6,15-77v-22.2c-55.8-17.7-96.6-66.9-103.2-125.4L88.2,0h335.6l-18.6,167.4
	C398.6,225.9,357.8,275.1,302,292.8z"/>
<path class="st0" d="M347,482h-91V0h167.8l-18.6,167.4c-6.6,58.5-47.4,107.7-103.2,125.4V315c0,8.4,6.6,77,15,77
	c24.9,0,45,20.1,45,45v30C362,475.4,355.4,482,347,482z"/>
<path class="st0" d="M422,497c0,8.4-6.6,15-15,15H105c-8.4,0-15-6.6-15-15s6.6-15,15-15h302C415.4,482,422,488.6,422,497z"/>
</svg>
