<?xml version="1.0" encoding="utf-8"?>
<!-- Generator: Adobe Illustrator 23.0.0, SVG Export Plug-In . SVG Version: 6.00 Build 0)  -->
<svg version="1.1" id="Слой_1" xmlns="http://www.w3.org/2000/svg" xmlns:xlink="http://www.w3.org/1999/xlink" x="0px" y="0px"
	 viewBox="0 0 250 250" style="enable-background:new 0 0 250 250;" xml:space="preserve">
<style type="text/css">
	.st0{fill:#FFFFFF;}
</style>
<g>
	<path class="st0" d="M124.7,237.3c-27.2,0-54.3-0.3-81.5,0.1c-14.6,0.2-25.7-11.3-25.5-25.4c0.4-32.2,0.1-64.4,0.1-96.6
		c0-0.5,0-1,0-1.5c0.1-3.7,1.5-4.5,4.5-2.5c6.1,3.9,12.2,8,18.4,11.9c26.3,17.1,52.6,34.3,78.8,51.4c3.6,2.4,6.9,2,10.4-0.3
		c32-20.9,64-41.7,96-62.5c0.6-0.4,1.1-0.8,1.8-1.1c2.3-1.2,3.5-0.4,3.7,2.2c0.1,0.8,0,1.6,0,2.4c0,32.5,0,65,0,97.5
		c0,14.1-10.1,24.3-24.2,24.4C179.8,237.3,152.3,237.3,124.7,237.3z"/>
	<path class="st0" d="M221,98c-0.8,0.6-1.6,1.3-2.4,1.9c-29.6,19.3-59.2,38.6-88.8,57.9c-3.3,2.2-6.5,2.4-9.9,0.1
		c-29.6-19.3-59.2-38.6-88.8-57.9c-0.9-0.6-1.7-1.4-3.4-2.7c1.9-0.3,2.8-0.6,3.8-0.6c20.2,0,40.5-0.1,60.7,0c1.2,0,2.6,0.7,3.5,1.6
		c5,4.9,9.9,9.9,14.9,14.8c8.4,8.4,19.7,8.3,28.1,0c4.9-4.9,9.7-9.8,14.7-14.6c1-1,2.7-1.7,4-1.7c20-0.1,40.1-0.1,60.1-0.1
		c1,0,2,0.2,3.1,0.4C220.9,97.4,220.9,97.7,221,98z"/>
	<path class="st0" d="M104.7,59.9c0-3.4,0-6.3,0-9.3c0-10.7,0-21.3,0-32c0-4.2,1.7-6,5.9-6c9.5,0,19,0,28.4,0c4,0,5.8,1.7,5.8,5.8
		c0,12.5,0,25.1,0,37.6c0,1.2,0,2.3,0,3.8c7,0,13.7-0.1,20.4,0c1.5,0,3,0.6,4.4,0.9c-0.8,1.3-1.3,2.8-2.4,3.8
		c-12.7,12.7-25.4,25.4-38.1,38.1c-3.3,3.3-5.4,3.3-8.8-0.1c-12.9-12.9-25.9-25.8-38.7-38.7c-0.8-0.8-1.2-1.9-1.7-2.9
		c1.1-0.4,2.3-1.1,3.4-1.1C90.3,59.8,97.2,59.9,104.7,59.9z"/>
</g>
</svg>
