<?xml version="1.0" encoding="utf-8"?>
<!-- Generator: Adobe Illustrator 23.0.0, SVG Export Plug-In . SVG Version: 6.00 Build 0)  -->
<svg version="1.1" id="Слой_1" xmlns="http://www.w3.org/2000/svg" xmlns:xlink="http://www.w3.org/1999/xlink" x="0px" y="0px"
	 viewBox="0 0 512 512" style="enable-background:new 0 0 512 512;" xml:space="preserve">
<style type="text/css">
	.st0{fill:#FFD400;}
	.st1{fill:#FF9F00;}
</style>
<g>
	<path class="st0" d="M157.3,128.4l-27.7,101.8l-3.8,14c-1.7,6.2-3.6,14.8-5.8,25.6c-2.2,10.9-3.6,19.9-4.4,27.2
		c-0.6-10.1-4.1-27.9-10.6-53.5l-3.6-13.4L74.1,128.4h-69l33.2,101.8l40.9,125.5h72.3l41.1-125.5L226,128.4H157.3z"/>
	<path class="st0" d="M245.5,128.4v101.8h61.7V128.4H245.5z"/>
	<path class="st0" d="M487.3,147.2c-14.4-12.5-36-18.8-64.7-18.8H344v101.8h61.4V178h15.9c17,0,25.5,7.7,25.5,23
		c0,9.1-2.7,16.3-8.2,21.5c-5.4,5.2-12.8,7.8-22,7.8h88.2c2.8-8.8,4.2-18.6,4.2-29.5C508.9,177.6,501.7,159.8,487.3,147.2z"/>
</g>
<rect x="245.5" y="230.2" class="st1" width="61.7" height="125.5"/>
<path class="st1" d="M504.8,230.2c-3.7,11.6-9.8,21.4-18.3,29.3c-15,13.8-36.2,20.7-63.8,20.7h-17.2v75.4H344V230.2H504.8z"/>
<path class="st1" d="M192.6,230.2l-41.1,125.5H79.2L38.3,230.2h63.2l3.6,13.4c6.4,25.6,10,43.4,10.6,53.5c0.7-7.3,2.2-16.3,4.4-27.2
	c2.2-10.9,4.1-19.4,5.8-25.6l3.8-14H192.6z"/>
</svg>
